<svg xmlns="http://www.w3.org/2000/svg" xml:space="preserve" id="Layer_1" x="0" y="0" version="1.1" viewBox="0 0 381.11 108.55">
  <style>
    .st9{fill:#202c47}
  </style>
  <path d="M353.26 68.68c3.08-.28 6.06-1.04 9.02-1.91 5.73-1.68 11.07-4.28 16.34-7.01.76-.39 1.56-.86 2.26-.08.57.63.03 1.68-1.11 2.3-4.94 2.66-9.94 5.17-15.29 6.96-3.61 1.2-7.28 2.23-11.04 2.67-2.37.27-4.85.34-7.22-.46-2.58-.87-4.29-2.53-4.96-5.35-1.12.97-2.13 1.96-3.28 2.78-1.13.81-2.18 1.73-3.5 2.22-2.65 1-5.13.18-5.47-3.59-.1-1.15-.11-2.32.36-3.62-2.79 1.03-5.38 1.99-7.98 2.93-5.52 1.99-11.17 3.55-16.97 4.33-2.41.32-5 .45-7.39-.67-.94-.44-1.74-1.01-2.25-1.93-.78-1.41-1.6-2.78-1.92-4.41-.35-1.76-1.17-2.12-3.01-1.64-1.63.42-2.96 1.37-4.25 2.38-3.05 2.39-5.8 5.12-8.49 7.9-.41.43-.85.88-1.52.63-.44-.17-.82-.51-.85-1-.04-.79-.12-1.63.08-2.38.52-1.92.96-3.87 1.71-5.72-.43-.32-.67.05-.92.18-3.57 1.77-7.17 3.47-10.96 4.71-5.23 1.71-10.53 3.26-16.12 2.74-3.05-.28-6.28-1.53-7.23-5.81-.99.8-1.95 1.56-2.9 2.35-1.32 1.11-2.65 2.22-4.33 2.76-2.58.83-4.72-.48-5.03-3.14-.12-1.03-.01-2.09.06-3.14.01-.23.26-.49.07-.69-.26-.27-.54.01-.79.11-3.26 1.36-6.53 2.71-9.86 3.91-4.23 1.52-8.55 2.73-12.97 3.38-2.06.3-4.25.29-6.32-.49-2.86-1.08-3.86-2.84-4.27-5.91-.07-.49-.01-.99-.01-1.5-.52-.08-.7.33-.96.56-1.67 1.41-3.32 2.8-5.29 3.81-1.9.98-3.91.99-5.89.75-2.04-.24-3.23-2.46-2.73-4.75.18-.84.5-1.65.77-2.47.1-.31.41-.64.16-.93-.24-.28-.64-.12-.96-.05-2.78.57-5.57 1.07-8.33 1.75-3.76.93-7.47 2.01-11.22 2.99-.87.23-1.38.63-1.67 1.55-3.78 11.99-9.74 22.78-18.09 32.18-4.14 4.66-9.21 7.99-15.41 9.37-3.81.85-7.36.16-10.59-2-1.48-.99-2.33-2.53-2.82-4.19-1.5-5.11.28-9.71 3.08-13.7 5.3-7.55 12.99-12.23 21.19-16.08 5.81-2.73 11.82-4.98 17.96-6.9.76-.24 1.18-.58 1.38-1.38 1.15-4.47 2.22-8.96 2.78-13.53.51-4.19 1.21-8.35 1.62-12.56.34-3.45.64-6.91 1.16-10.34.18-1.18.23-2.42.22-3.61 0-2.64.25-5.26.36-7.89.14-3.18.16-6.36.22-9.53.01-.73.15-1.48.37-2.17.6-1.86 1.38-2.39 3.11-2.26 1.56.11 2.21.87 2.59 3.02V15.2c-.45 3.14-.16 6.33-.53 9.47-.35 2.92-.55 5.85-.94 8.76-.36 2.66-.63 5.35-1.09 8-.49 2.81-1.32 5.55-1.9 8.35-.47 2.29-1.08 4.55-1.59 6.83-.46 2.07-1.07 4.1-1.71 6.3 3.16-1.06 6.28-1.82 9.4-2.62 4.05-1.04 8.13-1.88 12.27-2.45.72-.1 1.11-.37 1.5-.9.35-.48.58-1.19 1.37-1.13.67.05 1.52-.31 1.93.52.38.78.35 1.63-.13 2.39-1.13 1.81-2.22 3.64-2.96 5.65-.38 1.03-.09 1.44.99 1.52 1.11.08 2.16-.11 3.17-.62 3.87-1.94 6.96-4.79 9.53-8.24.37-.5.65-1.11 1.36-1.22.81-.12 1.68-.18 2.17.61.44.71.34 1.53-.1 2.26-.89 1.46-1.63 2.96-1.9 4.69-.46 2.92 1.51 5.24 4.5 5.32 3.45.09 6.67-.95 9.92-1.82 6.1-1.63 11.79-4.32 17.59-6.74.46-.19.75-.5 1.04-.87.98-1.22 2.11-2.27 3.35-3.23 1.82-1.41 3.91-1.38 6.01-1.19 1.08.1 2.14 1.56 2.2 2.78.04.75.01 1.51-.02 2.27-.01.3.14.72-.41.73-.4.01-.71-.06-.87-.53-.69-1.89-2.3-2.42-4.26-1.35-2.14 1.16-3.56 3.04-4.78 5.08-.45.75-.85 1.54-1.17 2.36-.25.64-.21 1.33.31 1.88.48.52 1.05.38 1.63.18.89-.3 1.68-.78 2.38-1.39 1.73-1.51 3.64-2.83 5.14-4.59.55-.64 1.16-.78 1.9-.52.73.25.62.87.64 1.47.12 3.08 1.8 5.13 4.76 5.5 1.54.42 3.07.34 4.61 0 2.73-.13 5.34-.88 7.95-1.61 5.64-1.57 10.93-3.99 16.12-6.66.44-.23.74-.52.91-.98.13-.35.3-.7.48-1.02.69-1.21 1.93-1.69 2.96-1.15.9.47 1.23 1.66.65 2.89-.83 1.79-1.77 3.52-2.64 5.29-.18.35-.49.68-.38 1.23 1.42-1.21 2.75-2.41 4.15-3.53 1.86-1.49 3.68-3.19 6.11-3.63 3.42-.63 5.54-.37 7.38 3.12.6 1.15 1.13 2.34 1.7 3.51.71 1.44 1.87 2.05 3.47 2.02 3.56-.07 6.96-1.03 10.39-1.82 6.32-1.45 12.26-4.03 18.3-6.3.46-.17.82-.52 1.14-.93.91-1.16 2.01-2.13 3.17-3.05 1.8-1.43 3.9-1.46 6-1.25 1.27.13 1.95 1.2 2.18 2.34.19.97.04 2.01.05 3.01 0 .31-.14.45-.45.44-.36-.01-.73-.1-.77-.5-.07-.77-.27-1.49-1.07-1.68-1.11-.27-2.26-.29-3.29.34-2.58 1.56-4.23 3.9-5.48 6.57-.16.34-.32.68-.43 1.04-.18.58-.19 1.13.29 1.62.45.47.95.47 1.5.3a6.55 6.55 0 0 0 2.21-1.18c1.87-1.55 3.89-2.93 5.46-4.81.53-.64 1.12-.84 1.89-.61.85.25.59.96.67 1.56.36 2.72 1.35 4.92 4.76 5.42 1.53.39 3.07.32 4.61-.02zm-198.98-.59c-.37.03-.59.01-.78.07-3.96 1.35-7.87 2.82-11.78 4.32-7.9 3.05-14.94 7.36-20.92 13.39-2.65 2.67-4.49 5.87-5.99 9.19-1.37 3.02-.66 6.08 1.59 8.66 1.29 1.47 2.94 2.17 4.85 2.24 2.42.09 4.69-.63 6.95-1.37 5.57-1.81 9.41-5.97 13.07-10.12 6.65-7.54 10.5-16.59 13.01-26.38zM43.23 87.77c-3 .18-6 .27-8.99.55-5.67.53-11.31 1.26-16.88 2.53-1.88.43-3.7 1.02-5.53 1.6-1.09.35-1.8 1.04-2.11 2.14-.85 3.01-2.14 5.9-2.36 9.08a2.3 2.3 0 0 1-1.4 1.97c-.3.13-.71.6-1.22.1-.43-.42-.75-.82-.59-1.41.35-1.31.61-2.67 1.15-3.91.91-2.09 1.62-4.24 2.35-6.69-2.12.85-4.1 1.48-5.67 2.94-.42.39-.76.94-1.48.77-.34-.08-.48-.33-.51-.64-.07-.8.45-1.22 1.08-1.54 2.2-1.15 4.39-2.3 6.6-3.41.72-.36 1.15-.83 1.37-1.64 1.05-3.79 2.2-7.56 3.26-11.34 1-3.56 1.91-7.16 3.01-10.68.62-1.98 1.27-3.98 1.87-5.98 1.08-3.65 2.06-7.34 3.07-11.01l2.31-8.37 2.73-9.99c.7-2.58 1.32-5.2 2.12-7.75 1.18-3.75 2.2-7.54 3.21-11.34 1.08-4.07 1.95-8.2 2.79-12.33.17-.75.54-1.43 1.49-1.42.96.01 1.7.31 2.04 1.32.58 1.74.19 3.48-.11 5.17-1.03 5.84-2.32 11.64-4.05 17.31-2.19 7.18-4.5 14.32-6.92 21.43-1.55 4.55-2.84 9.18-4.31 13.75-1.82 5.68-3.58 11.39-5.6 17.01-1.59 4.39-2.83 8.88-4.36 13.28-.15.42-.37.92-.09 1.25.25.3.68-.1 1.03-.18 4.22-.97 8.49-1.64 12.77-2.29 2.57-.39 5.13-.92 7.71-1.16 2.32-.22 4.62-.63 6.97-.61 1.41.01 2.83-.17 4.25-.27 1.37.07 2.74.17 4.09-.17 3.53 0 7.06-.01 10.58-.01 2.27.45 4.56.14 6.84.2 2.95 0 5.9-.01 8.85-.01.6.14 1.2.26 1.8.43.96.27 1.37.94 1.21 1.9-.15.88-.73 1.44-1.63 1.48-2.13.09-4.25-.08-6.36-.42-2.63-.41-5.29-.59-7.93-.88-3.35-.37-6.73-.34-10.07-.75-2.81-.36-5.6-.36-8.38-.01z" class="st9"/>
  <path d="M54.73 65.75c-1.67 1.47-3.05 2.96-4.74 4.07-1.24.81-2.52 1.49-4.08 1.36-1.61-.14-2.94-1.36-3.16-2.92-.75-5.25 3.34-11.87 8.51-13.25 3.16-.84 4.69-.19 5.47 2.08.35 1.02.08 2.08.14 3.13.02.33-.2.43-.49.42-.44-.01-.84-.1-1.01-.58-.65-1.81-1.55-2.22-3.35-1.53-.84.32-1.56.83-2.2 1.44-1.82 1.73-3.27 3.71-4.12 6.1-.27.76-.42 1.49.26 2.09.65.58 1.37.24 1.99-.08 2.64-1.33 4.61-3.48 6.61-5.57.49-.51.95-.66 1.62-.69.91-.04 1.18.36 1.21 1.18.04.83.06 1.7.3 2.49.56 1.78 2.96 3.33 4.86 3.4 7.35.28 14.09-2.05 20.69-4.87 3.16-1.35 6.22-2.92 9.33-4.39.61-.29 1.25-.68 1.84-.05.42.45-.02 1.91-.7 2.26-8.17 4.22-16.39 8.32-25.66 9.61-2.62.36-5.25.52-7.84-.12-2.85-.72-4.89-2.33-5.48-5.58z" class="st9"/>
</svg>
